<?xml version="1.0" standalone="no"?>
<!DOCTYPE svg PUBLIC "-//W3C//DTD SVG 20010904//EN"
 "http://www.w3.org/TR/2001/REC-SVG-20010904/DTD/svg10.dtd">
<svg version="1.0" xmlns="http://www.w3.org/2000/svg"
 width="150.000000pt" height="151.000000pt" viewBox="0 0 150.000000 151.000000"
 preserveAspectRatio="xMidYMid meet">

<g transform="translate(0.000000,151.000000) scale(0.100000,-0.100000)"
fill="#000000" stroke="none">
<path d="M707 1500 c-53 -10 -88 -38 -115 -92 l-23 -46 93 -90 93 -91 88 87
c96 95 98 101 56 168 -32 52 -114 79 -192 64z"/>
<path d="M315 1343 c-36 -9 -88 -52 -117 -94 -32 -49 -37 -109 -12 -161 l15
-33 217 3 c211 3 218 4 240 26 l23 23 -103 98 c-128 122 -192 156 -263 138z"/>
<path d="M1090 1333 c-38 -13 -108 -78 -453 -422 -224 -223 -420 -423 -434
-444 -19 -28 -28 -55 -31 -96 -4 -52 -1 -60 30 -101 66 -88 142 -112 226 -73
46 20 844 811 877 868 49 86 43 142 -22 215 -29 32 -57 53 -81 60 -47 13 -57
12 -112 -7z"/>
<path d="M136 935 c-87 -31 -129 -86 -129 -169 0 -67 26 -121 72 -151 70 -45
60 -51 261 150 l185 185 -175 0 c-124 -1 -187 -5 -214 -15z"/>
<path d="M1160 755 l-185 -185 157 0 c226 0 296 20 342 99 25 44 26 132 1 184
-17 37 -84 87 -116 87 -8 0 -97 -83 -199 -185z"/>
<path d="M849 444 l-24 -26 101 -98 c115 -112 161 -140 233 -140 40 0 57 6 93
33 81 61 105 146 62 228 l-15 29 -213 0 -213 0 -24 -26z"/>
<path d="M657 252 c-84 -84 -87 -90 -77 -116 31 -81 85 -119 170 -119 65 0
109 20 143 65 50 66 48 71 -49 169 -49 49 -91 89 -94 89 -3 0 -45 -40 -93 -88z"/>
</g>
</svg>
